<?xml version="1.0" encoding="UTF-8"?>
<svg xmlns="http://www.w3.org/2000/svg" xmlns:xlink="http://www.w3.org/1999/xlink" width="344pt" height="344pt" viewBox="0 0 344 344" version="1.1">
<g id="surface1">
<path style=" stroke:none;fill-rule:nonzero;fill:rgb(1.568627%,35.686275%,65.490196%);fill-opacity:1;" d="M 54.945312 287.222656 C 51.261719 284.144531 50.929688 278.835938 54.210938 275.375 C 99.234375 227.816406 123.144531 199.5625 144.566406 171.277344 C 150.886719 162.449219 154.597656 155.355469 151.730469 151.4375 C 151.035156 150.691406 149.304688 149.566406 146.402344 148.585938 C 140.699219 146.566406 131.164062 145.332031 120.707031 144.15625 C 99.539062 142.800781 86.332031 140.636719 77.710938 138.363281 C 69.125 136.078125 64.867188 133.699219 62.222656 131.230469 C 61.914062 130.949219 61.613281 130.617188 61.367188 130.339844 C 57.113281 126.285156 55.332031 120.671875 55.410156 115.628906 C 55.546875 106.304688 59.84375 97.253906 65.683594 87.53125 C 71.59375 77.863281 79.394531 67.78125 87.648438 58.078125 C 104.132812 38.699219 122.429688 20.933594 130.554688 13.253906 L 130.554688 13.257812 C 134.03125 9.96875 139.679688 9.953125 143.179688 13.21875 C 146.679688 16.488281 146.699219 21.796875 143.226562 25.082031 C 131.46875 36.140625 96.804688 70.179688 81.167969 95.890625 C 75.902344 104.328125 72.734375 110.179688 73.269531 115.628906 C 73.34375 117.777344 76.152344 120.195312 79.335938 121.269531 C 85.289062 123.226562 97.933594 125.894531 122.042969 127.414062 L 122.269531 127.429688 L 122.519531 127.460938 C 130.496094 128.382812 138.375 129.253906 145.570312 130.875 C 152.714844 132.5625 159.542969 134.761719 164.894531 140.101562 C 168.441406 143.628906 170.605469 148.804688 170.527344 154.03125 C 170.410156 162.273438 166.527344 170.445312 159.347656 180.703125 L 159.191406 180.921875 C 137.328125 209.789062 112.84375 238.703125 67.558594 286.539062 C 65.792969 288.402344 63.34375 289.355469 60.882812 289.355469 C 58.769531 289.351562 56.644531 288.648438 54.945312 287.222656 Z M 54.945312 287.222656 "/>
<path style=" stroke:none;fill-rule:nonzero;fill:rgb(1.568627%,35.686275%,65.490196%);fill-opacity:1;" d="M 209.886719 231.296875 C 209.886719 241.078125 201.980469 248.972656 192.109375 248.972656 C 182.394531 248.972656 174.449219 241.078125 174.449219 231.296875 C 174.449219 221.636719 182.394531 213.753906 192.109375 213.753906 C 201.980469 213.753906 209.886719 221.636719 209.886719 231.296875 Z M 209.886719 231.296875 "/>
<path style=" stroke:none;fill-rule:nonzero;fill:rgb(1.568627%,35.686275%,65.490196%);fill-opacity:1;" d="M 250.675781 231.296875 C 250.675781 241.078125 242.738281 248.972656 233.003906 248.972656 C 223.191406 248.972656 215.28125 241.078125 215.28125 231.296875 C 215.28125 221.636719 223.195312 213.753906 233.003906 213.753906 C 242.738281 213.753906 250.675781 221.636719 250.675781 231.296875 Z M 250.675781 231.296875 "/>
<path style=" stroke:none;fill-rule:nonzero;fill:rgb(1.568627%,35.686275%,65.490196%);fill-opacity:1;" d="M 291.570312 231.296875 C 291.570312 241.078125 283.640625 248.972656 273.890625 248.972656 C 264.066406 248.972656 256.117188 241.078125 256.117188 231.296875 C 256.117188 221.636719 264.066406 213.753906 273.890625 213.753906 C 283.640625 213.753906 291.570312 221.636719 291.570312 231.296875 Z M 291.570312 231.296875 "/>
<path style=" stroke:none;fill-rule:nonzero;fill:rgb(1.568627%,35.686275%,65.490196%);fill-opacity:1;" d="M 250.742188 271.871094 C 250.742188 281.652344 242.800781 289.546875 233.058594 289.546875 C 223.234375 289.546875 215.28125 281.652344 215.28125 271.871094 C 215.28125 262.207031 223.234375 254.324219 233.058594 254.324219 C 242.800781 254.324219 250.742188 262.207031 250.742188 271.871094 Z M 250.742188 271.871094 "/>
<path style=" stroke:none;fill-rule:nonzero;fill:rgb(47.45098%,54.901961%,77.647059%);fill-opacity:1;" d="M 169.007812 231.296875 C 169.007812 241.078125 161.070312 248.972656 151.28125 248.972656 C 141.554688 248.972656 133.617188 241.078125 133.617188 231.296875 C 133.617188 221.636719 141.558594 213.753906 151.28125 213.753906 C 161.070312 213.753906 169.007812 221.636719 169.007812 231.296875 Z M 169.007812 231.296875 "/>
<path style=" stroke:none;fill-rule:nonzero;fill:rgb(47.45098%,54.901961%,77.647059%);fill-opacity:1;" d="M 209.902344 271.871094 C 209.902344 281.652344 201.96875 289.546875 192.222656 289.546875 C 182.402344 289.546875 174.449219 281.652344 174.449219 271.871094 C 174.449219 262.207031 182.402344 254.324219 192.222656 254.324219 C 201.96875 254.324219 209.902344 262.207031 209.902344 271.871094 Z M 209.902344 271.871094 "/>
<path style=" stroke:none;fill-rule:nonzero;fill:rgb(47.45098%,54.901961%,77.647059%);fill-opacity:1;" d="M 169.070312 271.871094 C 169.070312 281.652344 161.136719 289.546875 151.386719 289.546875 C 141.566406 289.546875 133.617188 281.652344 133.617188 271.871094 C 133.617188 262.207031 141.566406 254.324219 151.386719 254.324219 C 161.136719 254.324219 169.070312 262.207031 169.070312 271.871094 Z M 169.070312 271.871094 "/>
<path style=" stroke:none;fill-rule:nonzero;fill:rgb(1.568627%,35.686275%,65.490196%);fill-opacity:1;" d="M 65.011719 307.730469 L 65.011719 316.160156 L 64.414062 316.160156 C 64.21875 314.542969 63.875 313.257812 63.375 312.292969 C 62.871094 311.339844 62.160156 310.574219 61.234375 310.011719 C 60.3125 309.449219 59.351562 309.164062 58.363281 309.164062 C 57.246094 309.164062 56.316406 309.550781 55.589844 310.3125 C 54.855469 311.070312 54.488281 311.9375 54.488281 312.90625 C 54.488281 313.652344 54.722656 314.328125 55.179688 314.941406 C 55.847656 315.835938 57.433594 317.035156 59.941406 318.53125 C 61.984375 319.753906 63.386719 320.691406 64.128906 321.34375 C 64.878906 322 65.449219 322.769531 65.855469 323.652344 C 66.261719 324.542969 66.457031 325.46875 66.457031 326.441406 C 66.457031 328.285156 65.816406 329.878906 64.53125 331.21875 C 63.25 332.550781 61.59375 333.222656 59.566406 333.222656 C 58.9375 333.222656 58.339844 333.167969 57.78125 333.054688 C 57.445312 332.996094 56.753906 332.78125 55.707031 332.402344 C 54.660156 332.023438 53.992188 331.835938 53.714844 331.835938 C 53.445312 331.835938 53.234375 331.925781 53.078125 332.105469 C 52.921875 332.285156 52.804688 332.65625 52.730469 333.21875 L 52.132812 333.21875 L 52.132812 324.863281 L 52.730469 324.863281 C 53.007812 326.609375 53.382812 327.917969 53.859375 328.789062 C 54.335938 329.652344 55.054688 330.378906 56.03125 330.953125 C 57.007812 331.527344 58.070312 331.816406 59.230469 331.816406 C 60.578125 331.816406 61.636719 331.421875 62.417969 330.632812 C 63.199219 329.835938 63.589844 328.90625 63.589844 327.828125 C 63.589844 327.226562 63.441406 326.621094 63.144531 326.011719 C 62.847656 325.402344 62.390625 324.828125 61.765625 324.304688 C 61.347656 323.941406 60.199219 323.179688 58.332031 322.011719 C 56.457031 320.84375 55.128906 319.910156 54.335938 319.21875 C 53.546875 318.523438 52.945312 317.753906 52.539062 316.914062 C 52.128906 316.074219 51.925781 315.15625 51.925781 314.148438 C 51.925781 312.402344 52.527344 310.890625 53.734375 309.628906 C 54.9375 308.363281 56.46875 307.730469 58.332031 307.730469 C 59.492188 307.730469 60.722656 308.046875 62.023438 308.683594 C 62.625 308.984375 63.050781 309.132812 63.300781 309.132812 C 63.578125 309.132812 63.808594 309.039062 63.980469 308.855469 C 64.164062 308.667969 64.304688 308.296875 64.414062 307.730469 Z M 65.011719 307.730469 "/>
<path style=" stroke:none;fill-rule:nonzero;fill:rgb(1.568627%,35.686275%,65.490196%);fill-opacity:1;" d="M 73.0625 315.710938 L 73.0625 319.417969 C 74.300781 316.945312 75.570312 315.710938 76.871094 315.710938 C 77.460938 315.710938 77.953125 315.910156 78.339844 316.308594 C 78.726562 316.714844 78.921875 317.179688 78.921875 317.703125 C 78.921875 318.171875 78.78125 318.570312 78.5 318.890625 C 78.222656 319.21875 77.890625 319.375 77.5 319.375 C 77.125 319.375 76.699219 319.171875 76.234375 318.757812 C 75.761719 318.34375 75.421875 318.136719 75.191406 318.136719 C 75 318.136719 74.789062 318.257812 74.5625 318.496094 C 74.078125 318.988281 73.582031 319.800781 73.0625 320.921875 L 73.0625 328.8125 C 73.0625 329.722656 73.167969 330.414062 73.371094 330.878906 C 73.511719 331.203125 73.757812 331.472656 74.109375 331.691406 C 74.46875 331.90625 74.976562 332.011719 75.648438 332.011719 L 75.648438 332.65625 L 68.078125 332.65625 L 68.078125 332.011719 C 68.832031 332.011719 69.390625 331.878906 69.757812 331.617188 C 70.027344 331.425781 70.214844 331.121094 70.320312 330.699219 C 70.375 330.496094 70.402344 329.914062 70.402344 328.957031 L 70.402344 322.578125 C 70.402344 320.660156 70.367188 319.519531 70.296875 319.152344 C 70.226562 318.785156 70.097656 318.519531 69.910156 318.355469 C 69.71875 318.1875 69.488281 318.101562 69.207031 318.101562 C 68.875 318.101562 68.5 318.191406 68.078125 318.367188 L 67.917969 317.726562 L 72.386719 315.710938 Z M 73.0625 315.710938 "/>
<path style=" stroke:none;fill-rule:nonzero;fill:rgb(1.568627%,35.686275%,65.490196%);fill-opacity:1;" d="M 84.3125 315.710938 L 84.3125 328.941406 C 84.3125 329.972656 84.378906 330.65625 84.511719 331 C 84.648438 331.339844 84.847656 331.589844 85.109375 331.761719 C 85.371094 331.929688 85.851562 332.015625 86.554688 332.015625 L 86.554688 332.660156 L 79.375 332.660156 L 79.375 332.015625 C 80.097656 332.015625 80.582031 331.933594 80.828125 331.78125 C 81.074219 331.621094 81.273438 331.367188 81.417969 331.007812 C 81.5625 330.644531 81.636719 329.960938 81.636719 328.941406 L 81.636719 322.59375 C 81.636719 320.808594 81.585938 319.652344 81.488281 319.128906 C 81.410156 318.742188 81.292969 318.472656 81.136719 318.324219 C 80.972656 318.175781 80.75 318.105469 80.472656 318.105469 C 80.171875 318.105469 79.808594 318.191406 79.375 318.371094 L 79.148438 317.726562 L 83.601562 315.710938 Z M 82.972656 307.101562 C 83.421875 307.101562 83.8125 307.277344 84.125 307.632812 C 84.445312 307.988281 84.601562 308.414062 84.601562 308.917969 C 84.601562 309.421875 84.445312 309.851562 84.125 310.210938 C 83.8125 310.570312 83.421875 310.75 82.972656 310.75 C 82.519531 310.75 82.132812 310.570312 81.8125 310.210938 C 81.488281 309.851562 81.328125 309.421875 81.328125 308.917969 C 81.328125 308.414062 81.484375 307.984375 81.804688 307.632812 C 82.117188 307.277344 82.511719 307.101562 82.972656 307.101562 Z M 82.972656 307.101562 "/>
<path style=" stroke:none;fill-rule:nonzero;fill:rgb(1.568627%,35.686275%,65.490196%);fill-opacity:1;" d="M 113.507812 325.921875 L 114.039062 326.046875 L 112.164062 332.65625 L 95.226562 332.65625 L 95.226562 331.992188 L 96.046875 331.992188 C 96.972656 331.992188 97.632812 331.660156 98.03125 330.984375 C 98.257812 330.605469 98.371094 329.714844 98.371094 328.328125 L 98.371094 312.601562 C 98.371094 311.078125 98.222656 310.128906 97.917969 309.738281 C 97.5 309.214844 96.875 308.949219 96.046875 308.949219 L 95.226562 308.949219 L 95.226562 308.285156 L 105.132812 308.285156 L 105.132812 308.949219 C 103.972656 308.9375 103.15625 309.0625 102.683594 309.308594 C 102.21875 309.5625 101.894531 309.878906 101.726562 310.265625 C 101.554688 310.648438 101.46875 311.566406 101.46875 313.015625 L 101.46875 328.328125 C 101.46875 329.320312 101.554688 330.003906 101.726562 330.378906 C 101.855469 330.632812 102.054688 330.8125 102.324219 330.929688 C 102.59375 331.054688 103.429688 331.113281 104.839844 331.113281 L 106.4375 331.113281 C 108.113281 331.113281 109.292969 330.972656 109.972656 330.699219 C 110.644531 330.425781 111.269531 329.933594 111.828125 329.234375 C 112.386719 328.535156 112.945312 327.429688 113.507812 325.921875 Z M 113.507812 325.921875 "/>
<path style=" stroke:none;fill-rule:nonzero;fill:rgb(1.568627%,35.686275%,65.490196%);fill-opacity:1;" d="M 123.625 330.289062 C 122.109375 331.589844 121.15625 332.347656 120.769531 332.550781 C 120.183594 332.851562 119.570312 333.003906 118.914062 333.003906 C 117.890625 333.003906 117.046875 332.609375 116.382812 331.832031 C 115.722656 331.054688 115.394531 330.03125 115.394531 328.761719 C 115.394531 327.957031 115.558594 327.261719 115.878906 326.671875 C 116.320312 325.859375 117.085938 325.09375 118.175781 324.375 C 119.269531 323.652344 121.082031 322.785156 123.625 321.75 L 123.625 321.101562 C 123.625 319.460938 123.390625 318.335938 122.921875 317.726562 C 122.453125 317.113281 121.769531 316.804688 120.878906 316.804688 C 120.199219 316.804688 119.664062 317.007812 119.265625 317.414062 C 118.855469 317.824219 118.65625 318.296875 118.65625 318.820312 L 118.683594 319.863281 C 118.683594 320.414062 118.554688 320.839844 118.304688 321.140625 C 118.054688 321.4375 117.722656 321.585938 117.3125 321.585938 C 116.914062 321.585938 116.589844 321.429688 116.335938 321.121094 C 116.082031 320.808594 115.957031 320.382812 115.957031 319.84375 C 115.957031 318.8125 116.429688 317.867188 117.375 317.003906 C 118.320312 316.140625 119.648438 315.710938 121.363281 315.710938 C 122.671875 315.710938 123.75 315.953125 124.589844 316.445312 C 125.226562 316.820312 125.691406 317.398438 125.992188 318.191406 C 126.1875 318.703125 126.285156 319.761719 126.285156 321.351562 L 126.285156 326.941406 C 126.285156 328.511719 126.308594 329.472656 126.363281 329.824219 C 126.414062 330.179688 126.503906 330.414062 126.628906 330.535156 C 126.75 330.660156 126.894531 330.71875 127.058594 330.71875 C 127.230469 330.71875 127.378906 330.675781 127.503906 330.589844 C 127.734375 330.4375 128.167969 330.003906 128.8125 329.28125 L 128.8125 330.289062 C 127.613281 332.085938 126.460938 332.984375 125.363281 332.984375 C 124.835938 332.984375 124.414062 332.78125 124.101562 332.371094 C 123.796875 331.964844 123.632812 331.269531 123.625 330.289062 Z M 123.625 329.117188 L 123.625 322.847656 C 121.996094 323.5625 120.949219 324.078125 120.472656 324.371094 C 119.625 324.902344 119.019531 325.453125 118.65625 326.027344 C 118.285156 326.605469 118.105469 327.234375 118.105469 327.914062 C 118.105469 328.777344 118.335938 329.496094 118.796875 330.0625 C 119.261719 330.632812 119.792969 330.917969 120.394531 330.917969 C 121.214844 330.917969 122.289062 330.316406 123.625 329.117188 Z M 123.625 329.117188 "/>
<path style=" stroke:none;fill-rule:nonzero;fill:rgb(1.568627%,35.686275%,65.490196%);fill-opacity:1;" d="M 133.695312 319.199219 C 135.425781 316.871094 137.078125 315.710938 138.648438 315.710938 C 139.453125 315.710938 140.148438 315.933594 140.730469 316.386719 C 141.308594 316.835938 141.773438 317.578125 142.113281 318.605469 C 142.355469 319.324219 142.472656 320.429688 142.472656 321.914062 L 142.472656 328.941406 C 142.472656 329.980469 142.546875 330.691406 142.695312 331.0625 C 142.8125 331.359375 143.007812 331.59375 143.269531 331.761719 C 143.53125 331.929688 144.015625 332.015625 144.730469 332.015625 L 144.730469 332.660156 L 137.417969 332.660156 L 137.417969 332.015625 L 137.726562 332.015625 C 138.414062 332.015625 138.898438 331.898438 139.171875 331.664062 C 139.445312 331.433594 139.636719 331.085938 139.742188 330.632812 C 139.785156 330.449219 139.808594 329.886719 139.808594 328.941406 L 139.808594 322.199219 C 139.808594 320.699219 139.632812 319.613281 139.285156 318.9375 C 138.9375 318.257812 138.34375 317.925781 137.515625 317.925781 C 136.238281 317.925781 134.964844 318.699219 133.695312 320.257812 L 133.695312 328.941406 C 133.695312 330.054688 133.75 330.742188 133.871094 331.007812 C 134.023438 331.355469 134.230469 331.605469 134.496094 331.773438 C 134.757812 331.933594 135.292969 332.015625 136.097656 332.015625 L 136.097656 332.660156 L 128.792969 332.660156 L 128.792969 332.015625 L 129.113281 332.015625 C 129.863281 332.015625 130.375 331.800781 130.636719 331.375 C 130.902344 330.949219 131.035156 330.136719 131.035156 328.941406 L 131.035156 322.824219 C 131.035156 320.855469 130.992188 319.648438 130.910156 319.21875 C 130.832031 318.785156 130.707031 318.488281 130.539062 318.335938 C 130.375 318.179688 130.148438 318.101562 129.875 318.101562 C 129.570312 318.101562 129.207031 318.191406 128.792969 318.367188 L 128.546875 317.722656 L 133 315.710938 L 133.695312 315.710938 Z M 133.695312 319.199219 "/>
<path style=" stroke:none;fill-rule:nonzero;fill:rgb(1.568627%,35.686275%,65.490196%);fill-opacity:1;" d="M 149.75 307.101562 L 149.75 323.492188 L 153.511719 319.664062 C 154.308594 318.851562 154.769531 318.335938 154.898438 318.121094 C 154.984375 317.976562 155.027344 317.832031 155.027344 317.691406 C 155.027344 317.449219 154.941406 317.242188 154.761719 317.066406 C 154.582031 316.894531 154.289062 316.792969 153.882812 316.773438 L 153.882812 316.199219 L 160.300781 316.199219 L 160.300781 316.773438 C 159.417969 316.792969 158.6875 316.945312 158.097656 317.21875 C 157.515625 317.496094 156.871094 317.988281 156.171875 318.695312 L 152.378906 322.59375 L 156.171875 327.933594 C 157.226562 329.40625 157.9375 330.34375 158.300781 330.734375 C 158.816406 331.300781 159.269531 331.667969 159.65625 331.832031 C 159.925781 331.953125 160.394531 332.011719 161.058594 332.011719 L 161.058594 332.65625 L 153.882812 332.65625 L 153.882812 332.011719 C 154.289062 331.996094 154.566406 331.929688 154.710938 331.804688 C 154.855469 331.679688 154.929688 331.503906 154.929688 331.277344 C 154.929688 331 154.714844 330.554688 154.285156 329.945312 L 149.753906 323.492188 L 149.753906 328.957031 C 149.753906 330.023438 149.816406 330.726562 149.953125 331.0625 C 150.089844 331.394531 150.28125 331.640625 150.527344 331.78125 C 150.773438 331.925781 151.3125 331.996094 152.140625 332.015625 L 152.140625 332.660156 L 144.621094 332.660156 L 144.621094 332.015625 C 145.375 332.015625 145.9375 331.910156 146.316406 331.707031 C 146.542969 331.574219 146.714844 331.371094 146.828125 331.097656 C 146.992188 330.699219 147.074219 330.019531 147.074219 329.050781 L 147.074219 314.054688 C 147.074219 312.148438 147.035156 310.988281 146.960938 310.558594 C 146.886719 310.136719 146.761719 309.84375 146.589844 309.683594 C 146.417969 309.515625 146.191406 309.441406 145.910156 309.441406 C 145.6875 309.441406 145.347656 309.535156 144.894531 309.742188 L 144.621094 309.113281 L 149.011719 307.101562 Z M 149.75 307.101562 "/>
<path style=" stroke:none;fill-rule:nonzero;fill:rgb(1.568627%,35.686275%,65.490196%);fill-opacity:1;" d="M 169.742188 330.289062 C 168.226562 331.589844 167.277344 332.347656 166.890625 332.550781 C 166.304688 332.851562 165.6875 333.003906 165.035156 333.003906 C 164.011719 333.003906 163.167969 332.609375 162.507812 331.832031 C 161.847656 331.054688 161.511719 330.03125 161.511719 328.761719 C 161.511719 327.957031 161.675781 327.261719 162 326.671875 C 162.441406 325.859375 163.207031 325.09375 164.300781 324.375 C 165.386719 323.652344 167.207031 322.785156 169.742188 321.75 L 169.742188 321.101562 C 169.742188 319.460938 169.507812 318.335938 169.039062 317.726562 C 168.570312 317.113281 167.890625 316.804688 167 316.804688 C 166.324219 316.804688 165.785156 317.007812 165.386719 317.414062 C 164.980469 317.824219 164.773438 318.296875 164.773438 318.820312 L 164.808594 319.863281 C 164.808594 320.414062 164.679688 320.839844 164.429688 321.140625 C 164.175781 321.4375 163.84375 321.585938 163.4375 321.585938 C 163.035156 321.585938 162.714844 321.429688 162.460938 321.121094 C 162.210938 320.808594 162.082031 320.382812 162.082031 319.84375 C 162.082031 318.8125 162.554688 317.867188 163.503906 317.003906 C 164.445312 316.140625 165.773438 315.710938 167.488281 315.710938 C 168.796875 315.710938 169.871094 315.953125 170.710938 316.445312 C 171.347656 316.820312 171.816406 317.398438 172.117188 318.191406 C 172.3125 318.703125 172.40625 319.761719 172.40625 321.351562 L 172.40625 326.941406 C 172.40625 328.511719 172.433594 329.472656 172.488281 329.824219 C 172.539062 330.179688 172.628906 330.414062 172.753906 330.535156 C 172.878906 330.660156 173.019531 330.71875 173.183594 330.71875 C 173.351562 330.71875 173.503906 330.675781 173.632812 330.589844 C 173.859375 330.4375 174.292969 330.003906 174.941406 329.28125 L 174.941406 330.289062 C 173.734375 332.085938 172.582031 332.984375 171.488281 332.984375 C 170.960938 332.984375 170.539062 332.78125 170.230469 332.371094 C 169.914062 331.964844 169.753906 331.269531 169.742188 330.289062 Z M 169.742188 329.117188 L 169.742188 322.847656 C 168.121094 323.5625 167.070312 324.078125 166.597656 324.371094 C 165.746094 324.902344 165.136719 325.453125 164.773438 326.027344 C 164.410156 326.605469 164.226562 327.234375 164.226562 327.914062 C 164.226562 328.777344 164.457031 329.496094 164.917969 330.0625 C 165.382812 330.632812 165.914062 330.917969 166.515625 330.917969 C 167.332031 330.917969 168.410156 330.316406 169.742188 329.117188 Z M 169.742188 329.117188 "/>
<path style=" stroke:none;fill-rule:nonzero;fill:rgb(1.568627%,35.686275%,65.490196%);fill-opacity:1;" d="M 200.726562 308.285156 L 200.96875 314.003906 L 200.351562 314.003906 C 200.238281 312.992188 200.078125 312.277344 199.875 311.847656 C 199.539062 311.148438 199.09375 310.640625 198.542969 310.3125 C 197.984375 309.980469 197.253906 309.816406 196.351562 309.816406 L 193.273438 309.816406 L 193.273438 328.4375 C 193.273438 329.933594 193.417969 330.871094 193.710938 331.242188 C 194.117188 331.742188 194.746094 331.996094 195.597656 331.996094 L 196.351562 331.996094 L 196.351562 332.660156 L 187.078125 332.660156 L 187.078125 331.996094 L 187.855469 331.996094 C 188.777344 331.996094 189.433594 331.683594 189.820312 331.0625 C 190.058594 330.675781 190.175781 329.804688 190.175781 328.4375 L 190.175781 309.816406 L 187.546875 309.816406 C 186.527344 309.816406 185.800781 309.902344 185.367188 310.070312 C 184.808594 310.296875 184.332031 310.734375 183.929688 311.378906 C 183.535156 312.027344 183.296875 312.902344 183.222656 314.003906 L 182.613281 314.003906 L 182.867188 308.289062 L 200.726562 308.289062 Z M 200.726562 308.285156 "/>
<path style=" stroke:none;fill-rule:nonzero;fill:rgb(1.568627%,35.686275%,65.490196%);fill-opacity:1;" d="M 202.472656 322.394531 C 202.460938 324.839844 202.996094 326.757812 204.070312 328.148438 C 205.148438 329.539062 206.410156 330.234375 207.863281 330.234375 C 208.828125 330.234375 209.671875 329.9375 210.386719 329.347656 C 211.097656 328.75 211.699219 327.734375 212.1875 326.296875 L 212.6875 326.65625 C 212.460938 328.300781 211.804688 329.792969 210.71875 331.140625 C 209.628906 332.492188 208.273438 333.164062 206.632812 333.164062 C 204.863281 333.164062 203.34375 332.394531 202.078125 330.855469 C 200.816406 329.316406 200.183594 327.246094 200.183594 324.644531 C 200.183594 321.828125 200.828125 319.636719 202.128906 318.054688 C 203.421875 316.480469 205.046875 315.691406 207.007812 315.691406 C 208.664062 315.691406 210.023438 316.300781 211.089844 317.519531 C 212.152344 318.734375 212.6875 320.359375 212.6875 322.394531 Z M 202.472656 321.355469 L 209.308594 321.355469 C 209.257812 320.300781 209.144531 319.558594 208.972656 319.128906 C 208.703125 318.453125 208.304688 317.929688 207.769531 317.546875 C 207.238281 317.15625 206.683594 316.96875 206.101562 316.96875 C 205.210938 316.96875 204.414062 317.355469 203.703125 318.128906 C 203.003906 318.898438 202.589844 319.976562 202.472656 321.355469 Z M 202.472656 321.355469 "/>
<path style=" stroke:none;fill-rule:nonzero;fill:rgb(1.568627%,35.686275%,65.490196%);fill-opacity:1;" d="M 219.207031 307.101562 L 219.207031 328.941406 C 219.207031 329.972656 219.273438 330.652344 219.410156 330.988281 C 219.546875 331.324219 219.75 331.578125 220.03125 331.753906 C 220.308594 331.925781 220.832031 332.015625 221.597656 332.015625 L 221.597656 332.660156 L 214.347656 332.660156 L 214.347656 332.015625 C 215.027344 332.015625 215.488281 331.933594 215.738281 331.78125 C 215.984375 331.621094 216.179688 331.367188 216.316406 331.007812 C 216.457031 330.644531 216.527344 329.960938 216.527344 328.941406 L 216.527344 313.984375 C 216.527344 312.125 216.488281 310.988281 216.417969 310.558594 C 216.339844 310.136719 216.21875 309.847656 216.050781 309.6875 C 215.882812 309.53125 215.671875 309.453125 215.414062 309.453125 C 215.132812 309.453125 214.777344 309.554688 214.347656 309.742188 L 214.074219 309.113281 L 218.480469 307.101562 Z M 219.207031 307.101562 "/>
<path style=" stroke:none;fill-rule:nonzero;fill:rgb(1.568627%,35.686275%,65.490196%);fill-opacity:1;" d="M 225.257812 322.394531 C 225.25 324.839844 225.78125 326.757812 226.855469 328.148438 C 227.933594 329.539062 229.199219 330.234375 230.652344 330.234375 C 231.617188 330.234375 232.460938 329.9375 233.175781 329.347656 C 233.890625 328.75 234.492188 327.734375 234.972656 326.296875 L 235.476562 326.65625 C 235.246094 328.300781 234.59375 329.792969 233.503906 331.140625 C 232.421875 332.492188 231.058594 333.164062 229.425781 333.164062 C 227.652344 333.164062 226.128906 332.394531 224.867188 330.855469 C 223.601562 329.316406 222.96875 327.246094 222.96875 324.644531 C 222.96875 321.828125 223.621094 319.636719 224.917969 318.054688 C 226.210938 316.480469 227.835938 315.691406 229.792969 315.691406 C 231.453125 315.691406 232.8125 316.300781 233.878906 317.519531 C 234.941406 318.734375 235.476562 320.359375 235.476562 322.394531 Z M 225.257812 321.355469 L 232.101562 321.355469 C 232.050781 320.300781 231.9375 319.558594 231.761719 319.128906 C 231.496094 318.453125 231.09375 317.929688 230.5625 317.546875 C 230.03125 317.15625 229.476562 316.96875 228.894531 316.96875 C 228 316.96875 227.199219 317.355469 226.496094 318.128906 C 225.789062 318.898438 225.382812 319.976562 225.257812 321.355469 Z M 225.257812 321.355469 "/>
<path style=" stroke:none;fill-rule:nonzero;fill:rgb(1.568627%,35.686275%,65.490196%);fill-opacity:1;" d="M 249.46875 326.40625 C 249.070312 328.574219 248.285156 330.242188 247.125 331.40625 C 245.964844 332.578125 244.675781 333.164062 243.269531 333.164062 C 241.589844 333.164062 240.128906 332.378906 238.878906 330.8125 C 237.632812 329.238281 237.011719 327.117188 237.011719 324.445312 C 237.011719 321.859375 237.703125 319.753906 239.082031 318.136719 C 240.464844 316.519531 242.125 315.710938 244.0625 315.710938 C 245.511719 315.710938 246.707031 316.136719 247.644531 316.996094 C 248.582031 317.851562 249.050781 318.742188 249.050781 319.664062 C 249.050781 320.121094 248.917969 320.488281 248.648438 320.769531 C 248.390625 321.050781 248.019531 321.191406 247.546875 321.191406 C 246.910156 321.191406 246.433594 320.964844 246.109375 320.511719 C 245.929688 320.257812 245.804688 319.777344 245.746094 319.070312 C 245.6875 318.363281 245.46875 317.824219 245.09375 317.453125 C 244.71875 317.09375 244.195312 316.914062 243.527344 316.914062 C 242.453125 316.914062 241.585938 317.355469 240.933594 318.246094 C 240.0625 319.421875 239.625 320.972656 239.625 322.902344 C 239.625 324.867188 240.058594 326.601562 240.921875 328.101562 C 241.789062 329.605469 242.957031 330.355469 244.433594 330.355469 C 245.484375 330.355469 246.433594 329.957031 247.273438 329.152344 C 247.863281 328.601562 248.4375 327.601562 249 326.15625 Z M 249.46875 326.40625 "/>
<path style=" stroke:none;fill-rule:nonzero;fill:rgb(1.568627%,35.686275%,65.490196%);fill-opacity:1;" d="M 258.277344 315.710938 C 260.515625 315.710938 262.308594 316.660156 263.671875 318.554688 C 264.820312 320.167969 265.394531 322.027344 265.394531 324.121094 C 265.394531 325.597656 265.082031 327.089844 264.445312 328.597656 C 263.808594 330.109375 262.9375 331.25 261.820312 332.015625 C 260.703125 332.78125 259.46875 333.167969 258.101562 333.167969 C 255.878906 333.167969 254.109375 332.175781 252.792969 330.203125 C 251.683594 328.535156 251.132812 326.664062 251.132812 324.59375 C 251.132812 323.082031 251.46875 321.582031 252.144531 320.089844 C 252.8125 318.601562 253.699219 317.492188 254.796875 316.78125 C 255.890625 316.066406 257.054688 315.710938 258.277344 315.710938 Z M 257.777344 316.878906 C 257.210938 316.878906 256.636719 317.066406 256.058594 317.449219 C 255.488281 317.824219 255.023438 318.484375 254.667969 319.433594 C 254.308594 320.378906 254.136719 321.597656 254.136719 323.082031 C 254.136719 325.476562 254.558594 327.542969 255.417969 329.28125 C 256.273438 331.019531 257.398438 331.886719 258.796875 331.886719 C 259.839844 331.886719 260.699219 331.410156 261.378906 330.449219 C 262.050781 329.492188 262.398438 327.84375 262.398438 325.507812 C 262.398438 322.585938 261.828125 320.28125 260.699219 318.605469 C 259.933594 317.457031 258.960938 316.878906 257.777344 316.878906 Z M 257.777344 316.878906 "/>
<path style=" stroke:none;fill-rule:nonzero;fill:rgb(1.568627%,35.686275%,65.490196%);fill-opacity:1;" d="M 271.429688 319.21875 C 272.503906 318.019531 273.140625 317.328125 273.335938 317.148438 C 273.816406 316.695312 274.335938 316.339844 274.898438 316.089844 C 275.460938 315.835938 276.007812 315.710938 276.558594 315.710938 C 277.484375 315.710938 278.277344 316.007812 278.949219 316.609375 C 279.613281 317.207031 280.058594 318.074219 280.285156 319.21875 C 281.390625 317.777344 282.328125 316.832031 283.097656 316.382812 C 283.855469 315.933594 284.644531 315.710938 285.449219 315.710938 C 286.234375 315.710938 286.933594 315.933594 287.535156 316.382812 C 288.148438 316.832031 288.625 317.566406 288.984375 318.585938 C 289.21875 319.28125 289.339844 320.371094 289.339844 321.859375 L 289.339844 328.941406 C 289.339844 329.972656 289.40625 330.675781 289.546875 331.0625 C 289.65625 331.324219 289.855469 331.546875 290.144531 331.734375 C 290.4375 331.921875 290.910156 332.011719 291.5625 332.011719 L 291.5625 332.65625 L 284.269531 332.65625 L 284.269531 332.011719 L 284.582031 332.011719 C 285.210938 332.011719 285.707031 331.875 286.0625 331.597656 C 286.3125 331.40625 286.488281 331.101562 286.59375 330.679688 C 286.636719 330.476562 286.660156 329.894531 286.660156 328.941406 L 286.660156 321.859375 C 286.660156 320.515625 286.515625 319.570312 286.222656 319.019531 C 285.804688 318.25 285.128906 317.867188 284.207031 317.867188 C 283.636719 317.867188 283.066406 318.027344 282.488281 318.34375 C 281.914062 318.660156 281.21875 319.25 280.398438 320.113281 L 280.367188 320.3125 L 280.398438 321.085938 L 280.398438 328.941406 C 280.398438 330.0625 280.453125 330.765625 280.566406 331.042969 C 280.679688 331.316406 280.894531 331.546875 281.207031 331.734375 C 281.519531 331.921875 282.050781 332.011719 282.800781 332.011719 L 282.800781 332.65625 L 275.332031 332.65625 L 275.332031 332.011719 C 276.152344 332.011719 276.710938 331.902344 277.019531 331.691406 C 277.324219 331.472656 277.539062 331.148438 277.65625 330.71875 C 277.710938 330.515625 277.738281 329.921875 277.738281 328.941406 L 277.738281 321.859375 C 277.738281 320.515625 277.5625 319.550781 277.207031 318.964844 C 276.730469 318.195312 276.066406 317.8125 275.222656 317.8125 C 274.640625 317.8125 274.0625 317.988281 273.492188 318.335938 C 272.601562 318.863281 271.910156 319.453125 271.429688 320.113281 L 271.429688 328.941406 C 271.429688 330.015625 271.496094 330.71875 271.632812 331.042969 C 271.765625 331.363281 271.964844 331.605469 272.230469 331.769531 C 272.488281 331.929688 273.023438 332.011719 273.832031 332.011719 L 273.832031 332.65625 L 266.527344 332.65625 L 266.527344 332.011719 C 267.203125 332.011719 267.675781 331.929688 267.945312 331.769531 C 268.210938 331.605469 268.417969 331.347656 268.558594 330.996094 C 268.699219 330.644531 268.769531 329.957031 268.769531 328.941406 L 268.769531 322.648438 C 268.769531 320.839844 268.71875 319.667969 268.621094 319.144531 C 268.546875 318.75 268.429688 318.472656 268.265625 318.324219 C 268.101562 318.175781 267.886719 318.101562 267.609375 318.101562 C 267.304688 318.101562 266.941406 318.191406 266.527344 318.367188 L 266.285156 317.726562 L 270.734375 315.710938 L 271.429688 315.710938 Z M 271.429688 319.21875 "/>
</g>
</svg>
